<?xml version="1.0" encoding="utf-8"?>
<!-- Generator: Adobe Illustrator 22.0.1, SVG Export Plug-In . SVG Version: 6.00 Build 0)  -->
<svg version="1.1" id="Capa_1" xmlns="http://www.w3.org/2000/svg" xmlns:xlink="http://www.w3.org/1999/xlink" x="0px" y="0px"
	 viewBox="0 0 512 327.6" style="enable-background:new 0 0 512 327.6;" xml:space="preserve">
<g>
	<g>
		<path d="M48.9,297.3h414.2c8.6,0,15.5-7,15.5-15.5V15.5c0-8.6-7-15.5-15.5-15.5H48.9c-8.6,0-15.5,7-15.5,15.5v266.2
			C33.4,290.3,40.4,297.3,48.9,297.3z M46.7,15.5c0-1.2,1-2.2,2.2-2.2h414.2c1.2,0,2.2,1,2.2,2.2v266.2c0,1.2-1,2.2-2.2,2.2H48.9
			c-1.2,0-2.2-1-2.2-2.2V15.5z M512,309.2v12.4c0,3.3-2.7,6-6,6H6c-3.3,0-6-2.7-6-6v-12.4h210.3c1,3.5,4.2,6,8,6h75.4
			c3.8,0,7-2.5,8-6H512z"/>
	</g>
</g>
</svg>
