<?xml version="1.0" encoding="utf-8"?>
<!-- Generator: Adobe Illustrator 22.0.1, SVG Export Plug-In . SVG Version: 6.00 Build 0)  -->
<svg version="1.1" id="Capa_1" xmlns="http://www.w3.org/2000/svg" xmlns:xlink="http://www.w3.org/1999/xlink" x="0px" y="0px"
	 viewBox="0 0 74 97.5" style="enable-background:new 0 0 74 97.5;" xml:space="preserve">
<g>
	<path d="M68.1,0H5.9C2.6,0,0,2.6,0,5.9v85.7c0,3.2,2.6,5.9,5.9,5.9h62.3c3.2,0,5.9-2.6,5.9-5.9V5.9C74,2.6,71.4,0,68.1,0z M37,3.4
		c0.5,0,0.9,0.4,0.9,0.9S37.5,5.1,37,5.1s-0.9-0.4-0.9-0.9S36.5,3.4,37,3.4z M37,94.3c-1,0-1.8-0.8-1.8-1.8s0.8-1.8,1.8-1.8
		s1.8,0.8,1.8,1.8S38,94.3,37,94.3z M69.3,88.8H4.7V8.7h64.6V88.8z"/>
</g>
</svg>
