<?xml version="1.0" encoding="UTF-8"?><!DOCTYPE svg PUBLIC "-//W3C//DTD SVG 1.1//EN" "http://www.w3.org/Graphics/SVG/1.1/DTD/svg11.dtd"><svg xmlns="http://www.w3.org/2000/svg" xmlns:xlink="http://www.w3.org/1999/xlink"><symbol id="desktop-icon" viewBox="0 0 512 327.6"><path d="M48.9 297.3h414.2c8.6 0 15.5-7 15.5-15.5V15.5c0-8.6-7-15.5-15.5-15.5H48.9c-8.6 0-15.5 7-15.5 15.5v266.2c0 8.6 7 15.6 15.5 15.6zM46.7 15.5c0-1.2 1-2.2 2.2-2.2h414.2c1.2 0 2.2 1 2.2 2.2v266.2c0 1.2-1 2.2-2.2 2.2H48.9c-1.2 0-2.2-1-2.2-2.2V15.5zM512 309.2v12.4c0 3.3-2.7 6-6 6H6c-3.3 0-6-2.7-6-6v-12.4h210.3c1 3.5 4.2 6 8 6h75.4c3.8 0 7-2.5 8-6H512z"/></symbol><symbol id="devices-icon" viewBox="0 0 534.84 369.82"><path d="M463.08 0H48.92a15.55 15.55 0 0 0-15.53 15.53v266.24a15.55 15.55 0 0 0 15.53 15.53H303V284H48.92a2.22 2.22 0 0 1-2.22-2.22V15.53a2.23 2.23 0 0 1 2.22-2.22h414.16a2.23 2.23 0 0 1 2.22 2.22v63.59h13.31V15.53A15.55 15.55 0 0 0 463.08 0zM301.73 309.19a8.38 8.38 0 0 1-8 6h-75.44a8.4 8.4 0 0 1-8-6H0v12.43a6 6 0 0 0 6 6h297v-18.43z"/><path d="M493 91.39H329.2a15.47 15.47 0 0 0-15.45 15.45v225.58a15.47 15.47 0 0 0 15.45 15.45h83.89v-9a4.46 4.46 0 0 1-2 .46 4.64 4.64 0 0 1 0-9.28 4.46 4.46 0 0 1 2 .46v-5.47h-87V114.17h170v24.62h12.36v-31.95A15.47 15.47 0 0 0 493 91.39zm-81.91 13.51a2.32 2.32 0 1 1 2.31-2.31 2.32 2.32 0 0 1-2.31 2.31zM534.84 202.87v23.93a.52.52 0 0 1-.52.52h-4a.51.51 0 0 1-.51-.52v-23.93a.51.51 0 0 1 .51-.52h4a.52.52 0 0 1 .52.52z"/><path d="M426.59 181.39v8.47h-.07a.51.51 0 0 1-.52-.51v-7.45a.51.51 0 0 1 .52-.51zM426.59 197.19V213h-.07a.52.52 0 0 1-.52-.52v-14.77a.52.52 0 0 1 .52-.52zM426.59 217v15.79h-.07a.52.52 0 0 1-.52-.52v-14.71a.52.52 0 0 1 .52-.52zM431 217.56v14.75a.51.51 0 0 1-.51.52h-3.9V217h3.9a.51.51 0 0 1 .51.56zM431 197.71v14.75a.51.51 0 0 1-.51.52h-3.9v-15.79h3.9a.51.51 0 0 1 .51.52zM431 181.9v7.45a.51.51 0 0 1-.51.51h-3.9v-8.47h3.9a.51.51 0 0 1 .51.51z"/><path d="M530.35 202.35h3.9V168a15.92 15.92 0 0 0-16-16h-75.7a15.92 15.92 0 0 0-16 16v13.37h3.9a.51.51 0 0 1 .51.51v7.45a.51.51 0 0 1-.51.51h-3.9v7.33h3.9a.51.51 0 0 1 .51.52v14.75a.51.51 0 0 1-.51.52h-3.9V217h3.9a.51.51 0 0 1 .51.52v14.75a.51.51 0 0 1-.51.52h-3.9v121a15.93 15.93 0 0 0 16 16h32.34l.66-.94h9.74l.66.94h32.34a15.93 15.93 0 0 0 16-16V227.32h-3.9a.51.51 0 0 1-.51-.52v-23.93a.51.51 0 0 1 .47-.52zm-55.5-42.21h11.33a.82.82 0 1 1 0 1.64h-11.33a.82.82 0 1 1 0-1.64zm52.82 193.5a9.67 9.67 0 0 1-9.69 9.69h-75.12a9.67 9.67 0 0 1-9.69-9.69V168.25a9.68 9.68 0 0 1 9.69-9.7h9.49a1.63 1.63 0 0 1 1.62 1.62v.75a5.26 5.26 0 0 0 5.27 5.27h42.36a5.26 5.26 0 0 0 5.27-5.27v-.75a1.63 1.63 0 0 1 1.62-1.62H518a9.68 9.68 0 0 1 9.69 9.7z"/><path d="M474 161a.83.83 0 0 1 .83-.82h11.33a.82.82 0 1 1 0 1.64h-11.31a.82.82 0 0 1-.85-.82z"/><path d="M527.67 168.25v185.39a9.67 9.67 0 0 1-9.69 9.69h-75.12a9.67 9.67 0 0 1-9.69-9.69V168.25a9.68 9.68 0 0 1 9.69-9.7h9.49a1.63 1.63 0 0 1 1.62 1.62v.75a5.26 5.26 0 0 0 5.27 5.27h42.36a5.26 5.26 0 0 0 5.27-5.27v-.75a1.63 1.63 0 0 1 1.62-1.62H518a9.68 9.68 0 0 1 9.67 9.7zM534.25 202.35v25h-3.9a.51.51 0 0 1-.51-.52v-23.96a.51.51 0 0 1 .51-.52z"/><path d="M487 161a.82.82 0 0 1-.83.82h-11.32a.82.82 0 1 1 0-1.64h11.33a.83.83 0 0 1 .82.82z" fill="#f9f9f9"/><path d="M527.67 168.25v185.39a9.67 9.67 0 0 1-9.69 9.69h-75.12a9.67 9.67 0 0 1-9.69-9.69V168.25a9.68 9.68 0 0 1 9.69-9.7h9.49a1.63 1.63 0 0 1 1.62 1.62v.75a5.26 5.26 0 0 0 5.27 5.27h42.36a5.26 5.26 0 0 0 5.27-5.27v-.75a1.63 1.63 0 0 1 1.62-1.62H518a9.68 9.68 0 0 1 9.67 9.7z" fill="#fff"/></symbol><symbol id="github" viewBox="0 0 438.5 438.5"><path d="M158.2 352.6c-3 .6-4.4 2-4 4.3.4 2.3 2.1 3 5.1 2.3 3-.8 4.4-2.1 4-4-.4-2.1-2.1-3-5.1-2.6zM141.9 354.9c-3 0-4.6 1-4.6 3.1 0 2.5 1.6 3.5 4.9 3.1 3 0 4.6-1 4.6-3.1 0-2.4-1.7-3.5-4.9-3.1zM119.6 354c-.8 2.1.5 3.5 3.7 4.3 2.9 1.1 4.7.6 5.4-1.7.6-2.1-.7-3.6-3.7-4.6-2.8-.7-4.6-.1-5.4 2z"/><path d="M414.4 24.1C398.3 8 379 0 356.3 0H82.2c-22.6 0-42 8-58.1 24.1S0 59.6 0 82.2v274.1c0 22.6 8 42 24.1 58.1s35.5 24.1 58.1 24.1h64c4.2 0 7.3-.1 9.4-.4 2.1-.3 4.2-1.5 6.3-3.7 2.1-2.2 3.1-5.4 3.1-9.6 0-.6-.1-7-.1-19.4-.1-12.4-.1-22.2-.1-29.4l-6.6 1.1c-4.2.8-9.5 1.1-15.8 1-6.4-.1-13-.8-19.8-2-6.9-1.2-13.2-4.1-19.1-8.6-5.9-4.5-10.1-10.3-12.6-17.6l-2.9-6.6c-1.9-4.4-4.9-9.2-9-14.6-4.1-5.3-8.2-8.9-12.4-10.9l-2-1.4c-1.3-1-2.6-2.1-3.7-3.4-1.1-1.3-2-2.7-2.6-4-.6-1.3-.1-2.4 1.4-3.3 1.5-.9 4.3-1.3 8.3-1.3l5.7.9c3.8.8 8.5 3 14.1 6.9C93.4 316 98 321 101.6 327c4.4 7.8 9.7 13.8 15.8 17.8 6.2 4.1 12.4 6.1 18.7 6.1s11.7-.5 16.3-1.4c4.6-1 8.8-2.4 12.8-4.3 1.7-12.8 6.4-22.6 14-29.4-10.8-1.1-20.6-2.9-29.3-5.1-8.7-2.3-17.6-6-26.8-11.1s-16.9-11.5-23-19.1c-6.1-7.6-11.1-17.6-15-30-3.9-12.4-5.9-26.7-5.9-42.8 0-23 7.5-42.6 22.6-58.8-7-17.3-6.4-36.7 2-58.2 5.5-1.7 13.7-.4 24.6 3.9 10.9 4.3 18.8 8 23.8 11s9.1 5.6 12.1 7.7c17.7-4.9 36-7.4 54.8-7.4 18.8 0 37.1 2.5 54.8 7.4l10.8-6.9c7.4-4.6 16.2-8.8 26.3-12.6 10.1-3.8 17.8-4.9 23.1-3.1 8.6 21.5 9.3 40.9 2.3 58.2 15 16.2 22.6 35.8 22.6 58.8 0 16.2-2 30.5-5.9 43-3.9 12.5-8.9 22.5-15.1 30-6.2 7.5-13.9 13.8-23.1 19-9.2 5.1-18.2 8.9-26.8 11.1-8.7 2.3-18.4 4-29.3 5.1 9.9 8.6 14.8 22.1 14.8 40.5v68.2c0 3.2.5 5.9 1.4 7.9 1 2 2.5 3.4 4.6 4.1 2.1.8 3.9 1.2 5.6 1.4 1.6.2 3.9.3 7 .3h64c22.6 0 42-8 58.1-24.1s24.1-35.5 24.1-58.1V82.2c.1-22.6-7.9-42-24-58.1z"/><path d="M86.8 319.2c-1.3.9-1.1 2.5.6 4.6 1.9 1.9 3.4 2.2 4.6.9 1.3-.9 1.1-2.5-.6-4.6-1.9-1.8-3.5-2.1-4.6-.9zM77.4 312.1c-.6 1.3.1 2.5 2 3.4 1.5 1 2.8.8 3.7-.6.6-1.3-.1-2.5-2-3.4-1.9-.6-3.2-.4-3.7.6zM95.6 330.3c-1.7.9-1.7 2.7 0 5.1 1.7 2.5 3.3 3.1 4.9 2 1.7-1.3 1.7-3.1 0-5.4-1.5-2.4-3.1-3-4.9-1.7zM105.6 343.2c-1.7 1.5-1.3 3.3 1.1 5.4 2.3 2.3 4.2 2.6 5.7.8 1.5-1.5 1.1-3.3-1.1-5.4-2.2-2.2-4.1-2.5-5.7-.8z"/></symbol><symbol id="icon-fb-mobile" viewBox="0 0 10 19"><path d="M7.1 19H2v-8.8H0V5.8h1.9c-.1-2 .2-3.4 1.1-4.4C3.8.5 5 .1 6.5 0H10v4.2H7.2c-.1.2-.2.8-.2 1.6h3v4.4H7.1V19zm-4-1h2.8V9.1h2.9V6.8H5.9v-.5c0-1.4 0-2.6.7-3.1l.1-.1h2.1V1H6.5c-1.2.1-2 .4-2.6 1-.8.8-1 2.3-.8 4.2l.1.6H1.1v2.3h2V18z"/></symbol><symbol id="icon-insta-mobile" viewBox="0 0 16 16"><path d="M11.8 1C13.6 1 15 2.4 15 4.2v7.7c0 1.7-1.4 3.1-3.1 3.1H4.2C2.4 15 1 13.6 1 11.8V4.2C1 2.4 2.4 1 4.2 1h7.6m0-1H4.2C1.9 0 0 1.9 0 4.2v7.7C0 14.1 1.9 16 4.2 16h7.7c2.3 0 4.2-1.9 4.2-4.2V4.2C16 1.9 14.1 0 11.8 0z"/><path d="M8 4.9c1.7 0 3.1 1.4 3.1 3.1 0 1.7-1.4 3.1-3.1 3.1-1.7 0-3.1-1.4-3.1-3.1 0-1.7 1.4-3.1 3.1-3.1m0-1C5.7 3.9 3.9 5.7 3.9 8s1.8 4.1 4.1 4.1 4.1-1.8 4.1-4.1S10.3 3.9 8 3.9z"/><circle cx="12.3" cy="3.7" r=".9"/></symbol><symbol id="icon-vk-mobile" viewBox="0 0 22 12"><path d="M17.6 12c-.3 0-.9-.1-1.5-.5-.5-.3-.9-.7-1.3-1.2-.3-.3-.9-.9-1.1-.9-.2.1-.4.7-.3 1.2 0 .1 0 .6-.3.9-.3.3-.8.4-.9.4h-1.4c-.7 0-3.2-.2-5.4-2.3C2.5 7.1.2 2.2.1 2 0 1.6-.1 1.2.2.9c.3-.3.8-.4 1-.4h3.1c.1 0 .4.1.7.3.3.2.4.5.5.6 0 0 .5 1.1 1.1 2 1 1.5 1.4 1.9 1.5 2 .1-.4.2-1.4.1-2.3 0-.4-.1-.8-.2-1-.1-.1-.3-.2-.5-.2l-.6-.5c0-.5.5-.9.9-1.1.5-.2 1.3-.3 2.3-.3h.5c.9 0 1.2.1 1.6.1 1.2.3 1.2 1.3 1.1 2.5v1.6c0 .3 0 .8.1 1 .2-.1.6-.5 1.5-1.9.6-.9 1-1.9 1.1-2.1.1-.3.4-.7 1.2-.7h3.4c.7 0 1.2.2 1.3.7.2.5.1 1.3-1.7 3.5-.3.3-.5.6-.7.9-.5.4-.9 1-.9 1.1 0 .1.5.5.9.9 1.1.9 1.9 1.7 2.2 2.3.4.6.3 1 .2 1.3-.3.7-1.2.7-1.4.8h-2.8-.1zm-3.9-3.7c.7 0 1.2.6 1.8 1.2.4.4.7.8 1.1 1 .5.3 1 .3 1 .3h2.9c.1 0 .3-.1.4-.1 0 0 0-.1-.1-.1-.3-.5-1-1.3-2-2.1-.9-.7-1.3-1.1-1.4-1.7 0-.6.4-1.1 1.2-2.1.2-.2.4-.5.7-.8 1.1-1.4 1.4-2 1.5-2.3H16.9c0 .4-.5 1.5-1.1 2.4-1.4 2.1-2 2.4-2.5 2.4-.1 0-.3 0-.4-.1-.7-.4-.7-1.4-.7-2.1v-.3-1.3c.1-1.3 0-1.3-.3-1.4-.3-.1-.5-.1-1.4-.1H10c-.5 0-1 0-1.4.1l.2.2c.4.5.4 1.5.4 1.7.1 1.3 0 2.9-.7 3.3-.1 0-.2.1-.4.1-.6 0-1.3-.7-2.5-2.5C5 2.9 4.5 1.8 4.5 1.8s0-.1-.1-.1-.2-.1-.2-.1H1.3h-.1c.4.9 2.5 5 4.8 7.2 2 1.9 4.3 2 4.7 2h1.4s.2 0 .2-.1v-.1c0-.2 0-2 1.2-2.3h.2z"/></symbol><symbol id="io-logo" viewBox="0 0 119 154.6"><path fill="none" d="M0 34.4v89h119v-106H0v17"/><text transform="translate(0 119.866)" font-size="145" font-family="Corbel-Bold">io</text></symbol><symbol id="linkedin" viewBox="0 0 510 510"><path d="M459 0H51C23 0 0 23 0 51v408c0 28 23 51 51 51h408c28 0 51-23 51-51V51c0-28-23-51-51-51zM153 433.5H76.5V204H153v229.5zm-38.2-272.9c-25.5 0-45.9-20.4-45.9-45.9s20.4-45.9 45.9-45.9 45.9 20.4 45.9 45.9-20.4 45.9-45.9 45.9zm318.7 272.9H357V298.4c0-20.4-17.9-38.3-38.3-38.3s-38.3 17.9-38.3 38.3v135.1H204V204h76.5v30.6c12.8-20.4 40.8-35.7 63.8-35.7 48.5 0 89.3 40.8 89.3 89.3v145.3z"/></symbol><symbol id="mobile-icon" viewBox="0 0 360 722"><path d="M358.3 167.1c.9 0 1.7.8 1.7 1.7V248c0 .9-.8 1.7-1.7 1.7h-13.1c-.9 0-1.7-.8-1.7-1.7v-79.2c0-.9.8-1.7 1.7-1.7h13.1zM1.714 97.7h13.1c.9 0 1.7.8 1.7 1.7V124c0 .9-.8 1.7-1.7 1.7h-13.1c-.9 0-1.7-.8-1.7-1.7V99.4c0-.9.7-1.7 1.7-1.7zM1.7 150c-.9 0-1.7.8-1.7 1.7v48.8c0 .9.8 1.7 1.7 1.7h13.1c.9 0 1.7-.8 1.7-1.7v-48.8c0-.9-.8-1.7-1.7-1.7H1.7zM1.7 215.673c-.9 0-1.7.7-1.7 1.7v48.8c0 .9.8 1.7 1.7 1.7h13.1c.9 0 1.7-.8 1.7-1.7v-48.8c0-.9-.8-1.7-1.7-1.7H1.7z"/><path d="M54.7.8C25.5.8 2 24.3 2 53.5v614.7C2 697.4 25.5 721 54.7 721h107l2.2-3.1h32.3l2.2 3.1h107c29.2 0 52.8-23.5 52.8-52.8V53.5c0-29.2-23.5-52.8-52.8-52.8L54.7.8z"/><path d="M161.6 27.4h37.5c1.5 0 2.7 1.2 2.7 2.7 0 1.5-1.2 2.7-2.7 2.7h-37.5c-1.5 0-2.7-1.2-2.7-2.7-.1-1.4 1.2-2.7 2.7-2.7z" fill="#f9f9f9"/><path d="M55.8 22.2c-17.8 0-32.1 14.3-32.1 32.1v613.2c0 17.8 14.3 32.1 32.1 32.1h248.4c17.8 0 32.1-14.3 32.1-32.1V54.3c0-17.8-14.3-32.1-32.1-32.1h-31.4c-3 0-5.4 2.4-5.4 5.4V30c0 9.7-7.8 17.4-17.4 17.4H109.9c-9.7 0-17.4-7.8-17.4-17.4v-2.5c0-3-2.4-5.4-5.4-5.4H55.8z" fill="#fff"/></symbol><symbol id="skype" viewBox="0 0 504 504"><path d="M334 265.6c-3.2-7.6-8.8-13.2-16-18-7.2-4.4-15.6-8.4-25.6-11.6s-21.2-6-33.2-8.4c-9.6-2-16.8-4-20.8-5.2s-8-2.8-12-4.8c-3.6-2-6.8-4-8.8-6.8-2-2.4-3.2-5.2-3.2-8.4 0-5.6 3.2-10 9.2-14 6.4-4 15.2-6.4 26-6.4 11.6 0 20 2 25.2 5.6 5.2 4 9.6 9.6 13.6 16.4 3.2 5.6 6 9.2 8.8 11.6 3.2 2.8 7.2 4 12.8 4 6 0 11.2-2 15.6-6.4 4-4 6-8.8 6-14.4s-1.6-11.2-4.8-16.8c-3.2-5.6-8-11.2-14.4-16-6.4-5.2-14.8-9.2-24.8-12-10-3.2-21.6-4.4-35.2-4.4-16.8 0-31.6 2.4-44 6.8-12.8 4.4-22.4 11.2-29.2 20s-10 18.8-10 30c0 11.6 3.2 21.6 9.6 29.6 6.4 8 15.2 14 25.6 18.8 10.4 4.4 23.6 8.4 39.2 11.6 11.6 2.4 20.8 4.8 27.6 6.8 6.4 2 12 4.8 16 8.8 4 3.6 5.6 8 5.6 14 0 7.2-3.6 13.6-11.2 18.4-7.6 5.2-18 7.6-30.4 7.6-8.8 0-16.4-1.2-21.6-4-5.2-2.4-9.6-5.6-12.4-9.6-3.2-4-6-9.2-8.8-15.2-2.4-5.6-5.2-9.6-8.8-12.8-3.6-2.8-8-4.4-13.2-4.4-6.4 0-11.6 2-15.6 5.6-4 4-6.4 8.4-6.4 14 0 8.8 3.2 17.6 9.6 26.8 6.4 8.8 14.8 16.4 24.8 21.6 14 7.2 32 11.2 53.6 11.2 18 0 33.6-2.8 46.8-8 13.2-5.6 23.6-13.2 30.4-22.8s10.4-20.8 10.4-32.8c0-10-2-18.8-6-26z"/><path d="M377.6 0H126C56.8 0 0 56.8 0 126.4V378c0 69.2 56.8 126 126 126h251.6c69.6 0 126.4-56.8 126.4-126.4V126.4C504 56.8 447.2 0 377.6 0zm-55.2 409.2c-14.8 0-28.8-3.6-41.2-10-8.8 1.6-18 2.4-27.6 2.4-82.8 0-150-66.4-150-148 0-10 1.2-20 3.2-29.6-7.6-12.8-12-27.6-12-43.2 0-47.2 38.8-85.6 86.8-85.6 16.8 0 32.8 4.8 46.4 13.2 8.4-1.2 16.8-2 25.6-2 82.8 0 150 66.4 150 148 0 10.8-1.2 21.6-3.6 31.6 5.6 11.6 9.2 24.4 9.2 38 0 46.8-38.8 85.2-86.8 85.2z"/></symbol><symbol id="tablet-icon" viewBox="0 0 74 97.5"><path d="M68.1 0H5.9C2.6 0 0 2.6 0 5.9v85.7c0 3.2 2.6 5.9 5.9 5.9h62.3c3.2 0 5.9-2.6 5.9-5.9V5.9C74 2.6 71.4 0 68.1 0zM37 3.4c.5 0 .9.4.9.9s-.4.8-.9.8-.9-.4-.9-.9.4-.8.9-.8zm0 90.9c-1 0-1.8-.8-1.8-1.8s.8-1.8 1.8-1.8 1.8.8 1.8 1.8-.8 1.8-1.8 1.8zm32.3-5.5H4.7V8.7h64.6v80.1z"/></symbol><symbol id="ukraine" viewBox="0 0 512 335.4"><path d="M0 297.1c0 21.2 17.2 38.3 38.3 38.3h435.3c21.2 0 38.3-17.2 38.3-38.3V167.7H0v129.4z" fill="#ffe15a"/><path d="M473.7 0H38.3C17.2 0 0 17.2 0 38.3v129.4h512V38.3C512 17.2 494.8 0 473.7 0z" fill="#4173cd"/></symbol></svg>